<?xml version="1.0" encoding="UTF-8" standalone="no"?>
<svg
   xmlns:dc="http://purl.org/dc/elements/1.1/"
   xmlns:cc="http://creativecommons.org/ns#"
   xmlns:rdf="http://www.w3.org/1999/02/22-rdf-syntax-ns#"
   xmlns:svg="http://www.w3.org/2000/svg"
   xmlns="http://www.w3.org/2000/svg"
   xmlns:sodipodi="http://sodipodi.sourceforge.net/DTD/sodipodi-0.dtd"
   xmlns:inkscape="http://www.inkscape.org/namespaces/inkscape"
   width="50mm"
   height="50mm"
   viewBox="0 0 50 50"
   version="1.1"
   id="svg8"
   inkscape:version="1.0.2 (e86c870879, 2021-01-15, custom)"
   sodipodi:docname="logo.svg">
  <defs
     id="defs2">
    <inkscape:path-effect
       effect="skeletal"
       id="path-effect991"
       is_visible="true"
       lpeversion="1"
       pattern="M 0,5 C 0,2.24 2.24,0 5,0 7.76,0 10,2.24 10,5 10,7.76 7.76,10 5,10 2.24,10 0,7.76 0,5 Z"
       copytype="single_stretched"
       prop_scale="1"
       scale_y_rel="false"
       spacing="0"
       normal_offset="0"
       tang_offset="0"
       prop_units="false"
       vertical_pattern="false"
       hide_knot="false"
       fuse_tolerance="0" />
    <inkscape:path-effect
       effect="skeletal"
       id="path-effect987"
       is_visible="true"
       lpeversion="1"
       pattern="M 0,5 C 0,2.24 2.24,0 5,0 7.76,0 10,2.24 10,5 10,7.76 7.76,10 5,10 2.24,10 0,7.76 0,5 Z"
       copytype="single_stretched"
       prop_scale="1"
       scale_y_rel="false"
       spacing="0"
       normal_offset="0"
       tang_offset="0"
       prop_units="false"
       vertical_pattern="false"
       hide_knot="false"
       fuse_tolerance="0" />
  </defs>
  <sodipodi:namedview
     id="base"
     pagecolor="#ffffff"
     bordercolor="#666666"
     borderopacity="1.0"
     inkscape:pageopacity="0.0"
     inkscape:pageshadow="2"
     inkscape:zoom="2.8284271"
     inkscape:cx="-2.4384874"
     inkscape:cy="80.533971"
     inkscape:document-units="mm"
     inkscape:current-layer="layer1"
     inkscape:document-rotation="0"
     showgrid="false"
     showguides="true"
     inkscape:guide-bbox="true"
     inkscape:window-width="1920"
     inkscape:window-height="1001"
     inkscape:window-x="0"
     inkscape:window-y="0"
     inkscape:window-maximized="1">
    <sodipodi:guide
       position="25,35.045361"
       orientation="-1,0"
       id="guide833"
       inkscape:label=""
       inkscape:locked="false"
       inkscape:color="rgb(0,0,255)" />
    <sodipodi:guide
       position="27.929665,25"
       orientation="0,1"
       id="guide835"
       inkscape:label=""
       inkscape:locked="false"
       inkscape:color="rgb(0,0,255)" />
    <sodipodi:guide
       position="30.669178,37.5"
       orientation="0,1"
       id="guide837"
       inkscape:label=""
       inkscape:locked="false"
       inkscape:color="rgb(0,0,255)" />
    <sodipodi:guide
       position="36.348656,12.5"
       orientation="0,1"
       id="guide839"
       inkscape:label=""
       inkscape:locked="false"
       inkscape:color="rgb(0,0,255)" />
  </sodipodi:namedview>
  <metadata
     id="metadata5">
    <rdf:RDF>
      <cc:Work
         rdf:about="">
        <dc:format>image/svg+xml</dc:format>
        <dc:type
           rdf:resource="http://purl.org/dc/dcmitype/StillImage" />
        <dc:title></dc:title>
      </cc:Work>
    </rdf:RDF>
  </metadata>
  <g
     inkscape:label="Layer 1"
     inkscape:groupmode="layer"
     id="layer1">
    <text
       xml:space="preserve"
       style="font-size:14.1111px;line-height:1.25;font-family:sans-serif;stroke-width:0.264583"
       x="30.328588"
       y="-14.333501"
       id="text855"><tspan
         sodipodi:role="line"
         id="tspan853"
         x="30.328588"
         y="-14.333501"
         style="stroke-width:0.264583" /></text>
    <g
       id="g1032"
       transform="matrix(1.1137345,0,0,1.1137345,-2.6471307,3.7276142)">
      <path
         id="path867"
         style="opacity:0.991;fill:#ee0e0e;fill-opacity:1;fill-rule:evenodd;stroke:#ee0e0e;stroke-width:7.65698;stroke-linejoin:round;stroke-miterlimit:4;stroke-dasharray:none;stroke-opacity:1;paint-order:markers stroke fill"
         d="M 85.910156,18.880859 C 47.43943,23.244094 18.374422,55.792398 18.375,94.509766 c 2.11e-4,2.118009 0.08883,4.235086 0.265625,6.345704 h 7.242187 C 25.666678,98.628285 25.558479,96.391944 25.558594,94.154297 25.558449,59.333204 51.382902,29.91255 85.910156,25.398438 Z m 18.031254,0.105469 v 6.419922 c 34.50337,4.537913 60.29852,33.94754 60.29882,68.748047 -5.3e-4,2.237679 -0.10938,4.47402 -0.32617,6.701173 h 6.42188 c 0.17679,-2.110618 0.26541,-4.227695 0.26562,-6.345704 2e-5,-38.380829 -28.57645,-70.756896 -66.66015,-75.523438 z"
         sodipodi:nodetypes="cccccccccccccc"
         transform="scale(0.26458333)" />
      <path
         id="path867-7"
         style="opacity:0.991;fill:#ee0e0e;fill-opacity:1;fill-rule:evenodd;stroke:#ee0e0e;stroke-width:8.41251;stroke-linejoin:round;stroke-miterlimit:4;stroke-dasharray:none;stroke-opacity:1;paint-order:markers stroke fill"
         d="m 93.822266,38.099609 c -25.108225,-8.9e-5 -46.445109,16.0969 -54.28711,38.529297 H 45.40625 C 53.079173,57.220955 71.994348,43.48452 94.130859,43.484375 116.26764,43.483947 135.18416,57.220872 142.85742,76.628906 h 5.25196 C 140.26737,54.196507 118.93049,38.099517 93.822266,38.099609 Z M 36.529297,90.802734 c -0.131224,1.585353 -0.21485,3.18546 -0.214844,4.804688 L 41.742188,95.875 c 1.1e-5,-1.712128 0.0875,-3.402227 0.248046,-5.072266 z m 109.744143,0 c 0.16055,1.670073 0.24999,3.360101 0.25,5.072266 l 4.80664,-0.267578 c 0,-1.61921 -0.0836,-3.219353 -0.21485,-4.804688 z"
         transform="scale(0.26458333)" />
      <path
         style="opacity:0.991;fill:#ee0e0e;fill-opacity:1;fill-rule:evenodd;stroke:#ee0e0e;stroke-width:2.984;stroke-linejoin:round;stroke-miterlimit:4;stroke-dasharray:none;stroke-opacity:1;paint-order:markers stroke fill"
         d="m 15.298928,24.95578 c -1.9e-5,-5.223539 4.234502,-9.45806 9.458041,-9.458041 5.22354,-1.9e-5 9.458061,4.234501 9.458042,9.458041 L 33.424551,25 C 33.42452,20.241193 29.566687,16.38346 24.80788,16.383552 20.04916,16.383583 16.191463,20.24128 16.191432,25 Z"
         id="path867-7-8" />
      <g
         aria-label="s"
         id="text997"
         style="font-size:20.9872px;line-height:1.25;font-family:sans-serif;fill:#ee0e0e;fill-opacity:1;stroke-width:0.394;stroke-miterlimit:4;stroke-dasharray:none"
         transform="matrix(1.2276115,0,0,1,-6.2990617,-0.27861506)">
        <path
           d="m 22.902222,25.278615 c 0.599539,0.588075 1.407423,1.109532 2.389966,1.109532 1.487459,0 2.879393,-0.900664 2.879393,-2.524588 0,-1.173591 -0.777845,-1.692156 -1.746742,-2.060608 -0.286573,-0.109171 -0.805138,-0.300222 -0.805138,-0.668675 0,-0.231989 0.204696,-0.354806 0.395746,-0.354806 0.450332,0 0.413184,-0.03098 1.255797,0.06678 l 0.630287,-1.07827 c -0.339794,-0.607331 -1.29292,-0.91489 -2.04984,-0.885369 -1.677234,0.06541 -2.89304,0.941602 -2.89304,2.429062 0,1.228177 0.832431,1.774035 1.883204,2.142487 0.463979,0.163757 0.695967,0.313868 0.695967,0.57315 0,0.259281 -0.286574,0.368453 -0.518563,0.368453 -0.491271,0 -0.992967,-0.533163 -1.510219,-0.554346 z"
           style="font-style:normal;font-variant:normal;font-weight:normal;font-stretch:normal;font-size:20.9872px;font-family:'Futura Condensed Extra';-inkscape-font-specification:'Futura Condensed Extra, Normal';font-variant-ligatures:normal;font-variant-caps:normal;font-variant-numeric:normal;font-variant-east-asian:normal;fill:#ee0e0e;fill-opacity:1;stroke-width:0.256189;stroke-miterlimit:4;stroke-dasharray:none"
           id="path1008"
           sodipodi:nodetypes="csscssccsscsscc" />
      </g>
    </g>
  </g>
</svg>
