<svg data-v-decfdd8a="" version="1.0" xmlns="http://www.w3.org/2000/svg" xmlns:xlink="http://www.w3.org/1999/xlink" width="100%" height="100%" viewBox="0 0 340.000000 250.000000" preserveAspectRatio="xMidYMid meet" color-interpolation-filters="sRGB" style="margin: auto;">
  <rect data-v-decfdd8a="" x="0" y="0" width="100%" height="100%" fill="url(#watermark)" fill-opacity="1" class="watermarklayer"/>
  <g data-v-decfdd8a="" fill="#0a0619" class="icon-text-wrapper icon-svg-group iconsvg" transform="translate(48.29499816894531,95)">
    <g class="iconsvg-imagesvg" transform="translate(0,0)" mask="url(#16430fae-4195-4227-bf13-a201214a0d76)">
      <g>
        <rect fill="#0a0619" fill-opacity="0" stroke-width="2" x="0" y="0" width="60" height="60" class="image-rect"/>
        <svg filter="url(#colors4131371902)" x="0" y="0" width="60" height="60" filtersec="colorsf3679272003" class="image-svg-svg primary" style="overflow: visible;">
          <svg xmlns="http://www.w3.org/2000/svg" viewBox="0 0 102.3 102.3">
            <path d="M51.1 51.1c-11.8 6.8-26.8 2.8-33.6-9-6.8-11.8-2.8-26.8 9-33.6 3.9-2.2 8.1-3.3 12.3-3.3M17.6 17.6c-3.6 2.1-6.8 5.1-9 9-6.8 11.8-2.8 26.8 9 33.6 11.8 6.8 26.8 2.8 33.6-9M5.3 38.9C3.2 42.5 2 46.7 2 51.1c0 13.6 11 24.6 24.6 24.6s24.6-11 24.6-24.6M5.3 63.4c0 4.2 1.1 8.4 3.3 12.3 6.8 11.8 21.8 15.8 33.6 9 11.8-6.8 15.8-21.8 9-33.6M17.6 84.7c2.1 3.6 5.1 6.8 9 9 11.8 6.8 26.8 2.8 33.6-9 6.8-11.8 2.8-26.8-9-33.6M38.9 97c3.6 2.1 7.8 3.3 12.3 3.3 13.6 0 24.6-11 24.6-24.6s-11-24.6-24.6-24.6M63.4 97c4.2 0 8.4-1.1 12.3-3.3 11.8-6.8 15.8-21.8 9-33.6-6.8-11.8-21.8-15.8-33.6-9m33.6 33.6c3.6-2.1 6.8-5.1 9-9 6.8-11.8 2.8-26.8-9-33.6-11.8-6.8-26.8-2.8-33.6 9M97 63.4c2.1-3.6 3.3-7.8 3.3-12.3 0-13.6-11-24.6-24.6-24.6-13.6 0-24.6 11-24.6 24.6M97 38.9c0-4.2-1.1-8.4-3.3-12.3-6.8-11.8-21.8-15.8-33.6-9-11.8 6.8-15.8 21.8-9 33.6m33.6-33.6c-2.1-3.6-5.1-6.8-9-9-11.8-6.8-26.8-2.8-33.6 9-6.8 11.8-2.8 26.8 9 33.6M63.4 5.3C59.8 3.2 55.6 2 51.1 2 37.6 2 26.6 13 26.6 26.6c0 13.6 11 24.6 24.6 24.6" fill="none" stroke="#333" stroke-width="4" stroke-miterlimit="10"/>
          </svg>
        </svg>
        <defs>
          <filter id="colors4131371902">
            <feColorMatrix type="matrix" values="0 0 0 0 0.03515625  0 0 0 0 0.95703125  0 0 0 0 0.140625  0 0 0 1 0" class="icon-fecolormatrix"/>
          </filter>
          <filter id="colorsf3679272003">
            <feColorMatrix type="matrix" values="0 0 0 0 0.99609375  0 0 0 0 0.99609375  0 0 0 0 0.99609375  0 0 0 1 0" class="icon-fecolormatrix"/>
          </filter>
          <filter id="colorsb889034425">
            <feColorMatrix type="matrix" values="0 0 0 0 0  0 0 0 0 0  0 0 0 0 0  0 0 0 1 0" class="icon-fecolormatrix"/>
          </filter>
        </defs>
      </g>
      <rect v-gra="id" width="72" height="72" transform="translate(-6, -6)" style="pointer-events:none;" fill="url(#DsJChkrk6JaZh2xowZLm6)"/>
    </g>
    <g transform="translate(67,10.829999923706055)">
      <g data-gra="path-name" fill-rule="" class="tp-name iconsvg-namesvg">
        <g transform="scale(1)">
          <g>
            <path d="M35.46-14.27L33.11-3.17Q31.64-2.47 30.09-1.79 28.53-1.12 26.77-0.62 25.01-0.12 22.93 0.18 20.84 0.47 18.38 0.47L18.38 0.47Q10.51 0.47 6.25-3.05 2-6.58 2-14.79L2-14.79Q2-19.55 3.46-23.75 4.93-27.95 7.81-31.09 10.68-34.23 14.91-36.05 19.14-37.87 24.6-37.87L24.6-37.87Q27.18-37.87 29.32-37.51 31.47-37.16 33.2-36.6 34.93-36.05 36.31-35.4 37.69-34.76 38.81-34.17L38.81-34.17 36.69-23.25 26.13-23.25Q26.18-23.84 26.27-24.77 26.36-25.71 26.42-26.68 26.48-27.65 26.54-28.59 26.59-29.53 26.59-30.18L26.59-30.18Q26.59-30.65 26.54-31.26 26.48-31.88 26.24-32.47 26.01-33.05 25.51-33.43 25.01-33.82 24.19-33.82L24.19-33.82Q22.66-33.82 21.4-32.55 20.14-31.29 19.14-29.21 18.14-27.12 17.38-24.48 16.61-21.84 16.12-19.11 15.62-16.38 15.35-13.74 15.09-11.1 15.09-9.1L15.09-9.1Q15.09-8.51 15.15-7.63 15.21-6.75 15.5-5.93 15.79-5.11 16.41-4.52 17.03-3.93 18.08-3.93L18.08-3.93Q19.9-3.93 21.6-6.19 23.31-8.45 24.6-14.27L24.6-14.27 35.46-14.27ZM70.39-26.48L60.65-26.48Q60.82-27.36 60.82-28.88L60.82-28.88Q60.82-29.77 60.7-30.62 60.59-31.47 60.29-32.14 60-32.82 59.41-33.2 58.83-33.58 57.89-33.58L57.89-33.58Q56.83-33.58 55.95-33.11 55.07-32.64 54.39-31.91 53.72-31.17 53.34-30.21 52.95-29.24 52.95-28.18L52.95-28.18Q52.95-26.65 53.75-25.83 54.54-25.01 55.83-24.48 57.12-23.95 58.77-23.6 60.41-23.25 62.17-22.78L62.17-22.78Q63.64-22.37 65.11-21.72 66.58-21.08 67.72-19.99 68.86-18.9 69.57-17.17 70.27-15.44 70.27-12.86L70.27-12.86Q70.27-9.16 68.81-6.63 67.34-4.11 64.76-2.52 62.17-0.94 58.62-0.23 55.07 0.47 50.9 0.47L50.9 0.47Q46.67 0.47 44-0.09 41.33-0.65 39.8-1.29L39.8-1.29Q37.98-2.05 37.1-3.05L37.1-3.05 39.1-11.1 49.43-11.1Q49.37-10.57 49.32-9.66 49.26-8.75 49.26-8.22L49.26-8.22Q49.26-7.51 49.43-6.75 49.61-5.99 49.99-5.34 50.37-4.7 51.08-4.29 51.78-3.87 52.84-3.87L52.84-3.87Q54.01-3.87 54.92-4.4 55.83-4.93 56.45-5.72 57.06-6.52 57.39-7.49 57.71-8.45 57.71-9.39L57.71-9.39Q57.71-10.68 57.09-11.57 56.48-12.45 55.42-13.06 54.36-13.68 52.98-14.12 51.6-14.56 50.14-15.03L50.14-15.03Q48.73-15.44 47.17-16.03 45.62-16.61 44.32-17.67 43.03-18.73 42.18-20.34 41.33-21.96 41.33-24.48L41.33-24.48Q41.33-28.24 43.24-30.79 45.15-33.35 48.05-34.93 50.96-36.52 54.42-37.19 57.89-37.87 61-37.87L61-37.87Q65.11-37.87 68.07-36.9 71.04-35.93 72.56-34.64L72.56-34.64 70.39-26.48ZM119.77-28.41L119.77-28.41Q119.77-24.95 117.83-22.02 115.89-19.08 111.43-17.55L111.43-17.55 118.24 0 105.15 0 99.98-16.26 99.33-16.26 95.87 0 83.19 0 91.12-37.28 106.56-37.28Q109.26-37.28 111.66-36.96 114.07-36.63 115.86-35.67 117.65-34.7 118.71-32.96 119.77-31.23 119.77-28.41ZM100.1-20.02L102.86-20.02Q104.38-20.02 105.47-21.05 106.56-22.07 107.23-23.54 107.91-25.01 108.2-26.68 108.49-28.36 108.49-29.59L108.49-29.59Q108.49-31.12 107.96-32.2 107.44-33.29 105.68-33.29L105.68-33.29 103.03-33.29 100.1-20.02ZM148.59-11.8L132.09-11.8Q131.86-10.51 131.77-9.33 131.68-8.16 131.68-7.22L131.68-7.22Q131.68-6.69 131.74-6.05 131.8-5.4 132.01-4.84 132.21-4.29 132.59-3.9 132.97-3.52 133.68-3.52L133.68-3.52Q134.21-3.52 134.88-3.87 135.56-4.23 136.23-4.87 136.91-5.52 137.52-6.46 138.14-7.4 138.49-8.57L138.49-8.57 148.12-8.57 146.59-2.29Q145.42-1.53 143.89-1 142.37-0.47 140.67-0.15 138.96 0.18 137.2 0.32 135.44 0.47 133.86 0.47L133.86 0.47Q130.92 0.47 128.4-0.06 125.87-0.59 123.99-1.88 122.11-3.17 121.03-5.31 119.94-7.46 119.94-10.63L119.94-10.63Q119.94-13.5 120.85-16.26 121.76-19.02 123.9-21.16 126.05-23.31 129.66-24.6 133.27-25.89 138.67-25.89L138.67-25.89Q144.54-25.89 147.5-24.07 150.47-22.25 150.47-18.38L150.47-18.38Q150.47-16.79 150-14.94 149.53-13.09 148.59-11.8L148.59-11.8ZM139.9-18.79L139.9-18.79Q139.9-20.61 139.32-21.25 138.73-21.9 137.91-21.9L137.91-21.9Q136.97-21.9 136.17-21.28 135.38-20.67 134.74-19.64 134.09-18.61 133.56-17.29 133.03-15.97 132.68-14.5L132.68-14.5 139.37-14.5Q139.49-15.21 139.61-15.97L139.61-15.97Q139.73-16.61 139.81-17.38 139.9-18.14 139.9-18.79ZM177.06-17.85L169.43-17.85Q169.49-18.14 169.55-18.43 169.61-18.73 169.61-19.08L169.61-19.08Q169.61-20.14 169.23-21.05 168.85-21.96 167.73-21.96L167.73-21.96Q166.73-21.96 165.73-21.11 164.74-20.25 164.74-18.85L164.74-18.85Q164.74-17.91 165.23-17.35 165.73-16.79 166.56-16.44 167.38-16.09 168.41-15.85 169.43-15.62 170.43-15.38L170.43-15.38Q171.84-15.03 173.1-14.53 174.36-14.03 175.36-13.21 176.36-12.39 176.95-11.18 177.53-9.98 177.53-8.22L177.53-8.22Q177.53-5.75 176.39-4.08 175.24-2.41 173.22-1.38 171.19-0.35 168.46 0.06 165.73 0.47 162.62 0.47L162.62 0.47Q157.87 0.47 154.76-0.23 151.64-0.94 150.41-1.59L150.41-1.59 151.64-7.46 159.57-7.46Q159.51-7.16 159.51-6.9 159.51-6.63 159.51-6.34L159.51-6.34Q159.51-4.99 160.13-4.2 160.74-3.41 162.27-3.41L162.27-3.41Q163.97-3.41 164.71-4.37 165.44-5.34 165.44-6.16L165.44-6.16Q165.44-6.99 164.82-7.6 164.21-8.22 163.27-8.66 162.33-9.1 161.18-9.42 160.04-9.75 158.98-10.04L158.98-10.04Q158.22-10.22 157.25-10.63 156.28-11.04 155.4-11.8 154.52-12.56 153.93-13.77 153.35-14.97 153.35-16.79L153.35-16.79Q153.35-19.37 154.61-21.11 155.87-22.84 157.9-23.89 159.92-24.95 162.48-25.42 165.03-25.89 167.61-25.89L167.61-25.89Q170.84-25.89 173.72-25.3 176.59-24.72 178.41-23.78L178.41-23.78 177.06-17.85Z" transform="translate(-2, 37.869998931884766)"/>
          </g>
        </g>
      </g>
    </g>
  </g>
  <defs v-gra="od"/>
  <defs v-gra="id">
    <filter id="4e81b7ac-5813-4c90-848e-5de7038d73b5" filterUnits="userSpaceOnUse">
      <feColorMatrix type="matrix" values="0 0 0 0 0.99609375  0 0 0 0 0.99609375  0 0 0 0 0.99609375  0 0 0 1 0"/>
    </filter>
    <linearGradient x1="0" y1="1" x2="0" y2="0" id="DsJChkrk6JaZh2xowZLm6">
      <stop offset="0%" stop-color="#fd9248"/>
      <stop offset="50%" stop-color="#fa1768"/>
      <stop offset="100%" stop-color="#f001ff"/>
    </linearGradient>
    <filter id="42443b3f1de60f6b6fd3b6a9844b4764" filterUnits="objectBoundingBox">
      <feColorMatrix type="matrix" values="0 0 0 0 0.99609375  0 0 0 0 0.99609375  0 0 0 0 0.99609375  0 0 0 1 0"/>
    </filter>
  </defs>
  <mask v-gra="im" id="16430fae-4195-4227-bf13-a201214a0d76">
    <g class="iconsvg-imagesvg" filter="url(#4e81b7ac-5813-4c90-848e-5de7038d73b5)">
      <g>
        <rect fill="#0a0619" fill-opacity="0" stroke-width="2" x="0" y="0" width="60" height="60" class="image-rect"/>
        <svg x="0" y="0" width="60" height="60" filtersec="colorsf3679272003" class="image-svg-svg primary" style="overflow: visible;">
          <svg xmlns="http://www.w3.org/2000/svg" viewBox="0 0 102.3 102.3">
            <path d="M51.1 51.1c-11.8 6.8-26.8 2.8-33.6-9-6.8-11.8-2.8-26.8 9-33.6 3.9-2.2 8.1-3.3 12.3-3.3M17.6 17.6c-3.6 2.1-6.8 5.1-9 9-6.8 11.8-2.8 26.8 9 33.6 11.8 6.8 26.8 2.8 33.6-9M5.3 38.9C3.2 42.5 2 46.7 2 51.1c0 13.6 11 24.6 24.6 24.6s24.6-11 24.6-24.6M5.3 63.4c0 4.2 1.1 8.4 3.3 12.3 6.8 11.8 21.8 15.8 33.6 9 11.8-6.8 15.8-21.8 9-33.6M17.6 84.7c2.1 3.6 5.1 6.8 9 9 11.8 6.8 26.8 2.8 33.6-9 6.8-11.8 2.8-26.8-9-33.6M38.9 97c3.6 2.1 7.8 3.3 12.3 3.3 13.6 0 24.6-11 24.6-24.6s-11-24.6-24.6-24.6M63.4 97c4.2 0 8.4-1.1 12.3-3.3 11.8-6.8 15.8-21.8 9-33.6-6.8-11.8-21.8-15.8-33.6-9m33.6 33.6c3.6-2.1 6.8-5.1 9-9 6.8-11.8 2.8-26.8-9-33.6-11.8-6.8-26.8-2.8-33.6 9M97 63.4c2.1-3.6 3.3-7.8 3.3-12.3 0-13.6-11-24.6-24.6-24.6-13.6 0-24.6 11-24.6 24.6M97 38.9c0-4.2-1.1-8.4-3.3-12.3-6.8-11.8-21.8-15.8-33.6-9-11.8 6.8-15.8 21.8-9 33.6m33.6-33.6c-2.1-3.6-5.1-6.8-9-9-11.8-6.8-26.8-2.8-33.6 9-6.8 11.8-2.8 26.8 9 33.6M63.4 5.3C59.8 3.2 55.6 2 51.1 2 37.6 2 26.6 13 26.6 26.6c0 13.6 11 24.6 24.6 24.6" fill="none" stroke="#333" stroke-width="4" stroke-miterlimit="10"/>
          </svg>
        </svg>
        <defs>
          <filter id="colors4131371902">
            <feColorMatrix type="matrix" values="0 0 0 0 0.03515625  0 0 0 0 0.95703125  0 0 0 0 0.140625  0 0 0 1 0" class="icon-fecolormatrix"/>
          </filter>
          <filter id="colorsf3679272003">
            <feColorMatrix type="matrix" values="0 0 0 0 0.99609375  0 0 0 0 0.99609375  0 0 0 0 0.99609375  0 0 0 1 0" class="icon-fecolormatrix"/>
          </filter>
          <filter id="colorsb889034425">
            <feColorMatrix type="matrix" values="0 0 0 0 0  0 0 0 0 0  0 0 0 0 0  0 0 0 1 0" class="icon-fecolormatrix"/>
          </filter>
        </defs>
      </g>
    </g>
  </mask>
</svg>
